<?xml version="1.0" encoding="UTF-8" standalone="no"?>
<svg
   xmlns:dc="http://purl.org/dc/elements/1.1/"
   xmlns:cc="http://creativecommons.org/ns#"
   xmlns:rdf="http://www.w3.org/1999/02/22-rdf-syntax-ns#"
   xmlns:svg="http://www.w3.org/2000/svg"
   xmlns="http://www.w3.org/2000/svg"
   xmlns:sodipodi="http://sodipodi.sourceforge.net/DTD/sodipodi-0.dtd"
   xmlns:inkscape="http://www.inkscape.org/namespaces/inkscape"
   height="51"
   viewBox="0 0 52.06023 35.23505"
   width="74"
   version="1.1"
   id="svg11"
   sodipodi:docname="mariadb.svg"
   inkscape:version="0.92.4 5da689c313, 2019-01-14">
  <metadata
     id="metadata17">
    <rdf:RDF>
      <cc:Work
         rdf:about="">
        <dc:format>image/svg+xml</dc:format>
        <dc:type
           rdf:resource="http://purl.org/dc/dcmitype/StillImage" />
        <dc:title></dc:title>
      </cc:Work>
    </rdf:RDF>
  </metadata>
  <defs
     id="defs15" />
  <sodipodi:namedview
     pagecolor="#ffffff"
     bordercolor="#666666"
     borderopacity="1"
     objecttolerance="10"
     gridtolerance="10"
     guidetolerance="10"
     inkscape:pageopacity="0"
     inkscape:pageshadow="2"
     inkscape:window-width="1393"
     inkscape:window-height="689"
     id="namedview13"
     showgrid="false"
     fit-margin-top="0"
     fit-margin-left="0"
     fit-margin-right="0"
     fit-margin-bottom="0"
     inkscape:zoom="2.75"
     inkscape:cx="36.766237"
     inkscape:cy="39.031611"
     inkscape:window-x="0"
     inkscape:window-y="0"
     inkscape:window-maximized="0"
     inkscape:current-layer="svg11" />
  <clipPath
     id="a">
    <path
       d="M 0,0 H 191.356 V 57.344 H 0 Z"
       id="path2"
       inkscape:connector-curvature="0" />
  </clipPath>
  <g
     id="g9"
     style="fill:#444b5e"
     transform="translate(-16.345339,-2.4525692)">
    <path
       clip-path="url(#a)"
       d="m 152.528,27.115 c -1.522,-2.088 -3.507,-3.13 -5.95,-3.13 -2.125,0 -3.948,0.78 -5.472,2.34 -1.523,1.542 -2.285,3.403 -2.285,5.584 0,2.163 0.752,4.034 2.257,5.613 1.523,1.56 3.386,2.342 5.584,2.342 2.198,0 4.156,-1.025 5.867,-3.075 v 2.567 h 1.9 V 24.38 h -1.9 z m -1.635,9.223 c -1.166,1.166 -2.567,1.75 -4.203,1.75 -1.617,0 -3.008,-0.602 -4.174,-1.806 -1.166,-1.222 -1.75,-2.66 -1.75,-4.315 a 6,6 0 0 1 1.721,-4.287 5.54,5.54 0 0 1 4.202,-1.834 c 1.674,0 3.084,0.593 4.23,1.777 1.146,1.166 1.72,2.605 1.72,4.316 0,1.768 -0.583,3.234 -1.75,4.4 M 135,24.38 h 1.946 V 39.357 H 135 Z M 84.33,39.356 h 1.947 l 1.974,-14.6 7.25,14.6 h 0.507 l 7.164,-14.497 1.975,14.497 h 2.002 l -2.905,-20.25 h -0.3 l -8.18,16.613 -8.237,-16.613 h -0.3 z m 37.534,-12.24 c -1.52,-2.088 -3.506,-3.13 -5.95,-3.13 -2.124,0 -3.947,0.78 -5.47,2.34 -1.524,1.542 -2.285,3.403 -2.285,5.584 a 7.86,7.86 0 0 0 2.256,5.613 c 1.523,1.56 3.386,2.342 5.585,2.342 2.199,0 4.156,-1.025 5.866,-3.075 v 2.567 h 1.9 V 24.38 h -1.9 z m -1.635,9.223 c -1.166,1.166 -2.567,1.75 -4.203,1.75 -1.617,0 -3.008,-0.602 -4.174,-1.806 -1.166,-1.222 -1.75,-2.66 -1.75,-4.315 a 6,6 0 0 1 1.72,-4.287 c 1.148,-1.222 2.548,-1.834 4.203,-1.834 1.674,0 3.084,0.593 4.23,1.777 1.146,1.166 1.72,2.605 1.72,4.316 0.001,1.768 -0.58,3.234 -1.748,4.4 m 50.428,-14.584 c -0.978,-0.92 -2.143,-1.6 -3.497,-2.002 -1.335,-0.432 -3.44,-0.65 -6.318,-0.65 h -4.202 v 20.252 h 6.46 c 2.633,0 4.644,-0.396 6.035,-1.185 1.4,-0.8 2.52,-1.956 3.328,-3.498 a 10.44,10.44 0 0 0 1.241,-4.964 c 0,-1.77 -0.263,-3.3 -0.8,-4.625 -0.537,-1.325 -1.28,-2.426 -2.257,-3.33 m 0.367,11.225 c -0.434,1.034 -1.063,1.918 -1.9,2.65 -0.826,0.715 -1.796,1.193 -2.904,1.438 -1.1,0.245 -2.858,0.367 -5.304,0.367 h -2.34 V 21.08 h 1.438 c 2.426,0 4.26,0.132 5.5,0.395 1.26,0.245 2.35,0.734 3.27,1.467 0.92,0.733 1.627,1.664 2.116,2.792 0.508,1.128 0.76,2.36 0.76,3.695 0,1.335 -0.215,2.52 -0.647,3.553 M 183.687,28.3 c 0.847,-0.45 1.484,-1.043 1.918,-1.777 0.45,-0.752 0.677,-1.57 0.677,-2.454 0,-1.598 -0.555,-2.82 -1.664,-3.667 -1.1,-0.865 -2.698,-1.297 -4.823,-1.297 H 175.8 v 20.252 h 5.584 c 1.938,0 3.517,-0.546 4.74,-1.636 1.222,-1.1 1.833,-2.5 1.833,-4.175 0,-1.24 -0.367,-2.313 -1.1,-3.216 -0.715,-0.9 -1.768,-1.578 -3.16,-2.03 m -5.895,-7.22 h 2.342 c 2.708,0 4.062,0.996 4.062,3 0,1.204 -0.432,2.088 -1.297,2.652 -0.865,0.564 -2.182,0.846 -3.95,0.846 h -1.157 z m 7.4,14.524 c -0.434,0.602 -0.996,1.053 -1.693,1.354 -0.676,0.282 -1.74,0.424 -3.186,0.424 h -2.512 v -7.785 h 1.128 c 1.824,0 3.065,0.094 3.725,0.282 0.677,0.188 1.25,0.47 1.72,0.847 0.5,0.376 0.855,0.8 1.1,1.297 0.245,0.497 0.366,1.053 0.366,1.692 0,0.639 -0.216,1.27 -0.65,1.9 m -49.228,-16.5 a 1.37,1.37 0 0 0 -0.99,0.42 c -0.264,0.28 -0.396,0.6 -0.396,1 a 1.37,1.37 0 0 0 0.396,0.966 c 0.28,0.28 0.6,0.42 1,0.42 a 1.37,1.37 0 0 0 1,-0.396 c 0.28,-0.28 0.42,-0.612 0.42,-1 a 1.3,1.3 0 0 0 -0.421,-0.991 1.3,1.3 0 0 0 -0.991,-0.421 m -3.593,5.043 a 6.91,6.91 0 0 0 -4.07,2.076 l -0.2,0.23 V 24.4 h -0.336 v -0.03 h -1.5 v 14.983 h 1.965 v -8.88 a 4.07,4.07 0 0 1 0.712,-2.34 c 0.806,-1.286 2.22,-2.148 3.84,-2.18 V 24.06 l -0.4,0.085"
       transform="matrix(0.499154,0,0,0.499154,-25.748318,18.054144)"
       id="path5"
       inkscape:connector-curvature="0" />
    <path
       clip-path="url(#a)"
       d="m 75.198,5.328 c -1.872,0.047 -2.977,0.863 -3.34,2.42 0.48,0.418 1.126,0.6 1.77,0.572 1.415,-0.06 2.817,-1.138 2.42,-2.965 C 75.75,5.33 75.466,5.32 75.198,5.328 M 84.84,0 H 84.673 C 83.338,0.043 83.131,0.767 80.248,1.477 77.336,2.194 74.523,1.505 71.388,2.821 62.025,6.748 60.03,20.293 51.52,25.1 c -6.36,3.593 -12.512,5.188 -18.28,6.995 -3.792,1.188 -7.552,2.556 -10.988,5.516 -2.667,2.3 -3.4,4.085 -6.177,6.97 -2.835,2.933 -11.553,-2.258 -15.8,1.54 a 0.84,0.84 0 0 0 0.014,1.253 c 0.92,0.805 2.67,2.722 4.336,3.314 -0.528,1 -3.513,3.946 -2.904,5.42 0.64,1.55 8.04,0.497 14.88,-3.633 3.185,-1.924 5.723,-4.696 10.685,-5.357 6.42,-0.855 13.817,0.55 21.25,1.62 -1.103,3.286 -3.315,5.473 -5.088,8.1 -0.55,0.592 1.103,0.658 2.986,0.3 3.4,-0.838 5.832,-1.513 8.4,-3 3.143,-1.83 3.62,-6.52 7.474,-7.534 1.864,2.865 6.5,3.83 10.074,2.3 0.198,-0.084 0.392,-0.177 0.582,-0.275 0.43,-0.375 0.178,-0.813 -0.086,-1.135 A 6.21,6.21 0 0 1 72.516,47.13 c -2.012,-2.162 -2.472,-7.266 -1.58,-9.748 1.017,-2.824 2.022,-7.343 3.046,-11.075 1.1,-4 1.506,-9.063 2.837,-11.106 2.002,-3.072 4.215,-4.127 6.136,-5.86 1.921,-1.733 3.68,-3.42 3.62,-7.384 C 86.547,0.734 85.946,0.03 84.84,0 m 0.204,4.163 C 84.647,6.897 82.9,8.4 80.836,9.85 c -1.8,1.27 -3.794,2.493 -5.07,4.477 -1.305,2.03 -2.134,8.985 -4.16,15.852 -1.68,5.698 -4.184,11.335 -8.467,14.05 -0.278,0.176 -0.645,0.015 -0.704,-0.3 -0.3,-1.592 -0.24,-4.5 -0.734,-3.56 -0.62,1.77 -1.322,3.458 -2.143,5.027 -2.52,4.816 -6.166,8.505 -12.057,9.95 a 0.53,0.53 0 0 1 -0.552,-0.82 c 2.718,-3.77 5.15,-7.825 5.447,-14.014 0.025,-0.534 -0.646,-0.778 -0.983,-0.364 -1.284,1.583 -1.6,5.347 -3.477,6.506 -1.474,0.16 -2.967,0.16 -4.47,0.07 -6.17,-0.37 -12.502,-2.226 -18.274,-0.373 -3.93,1.262 -8.057,4.85 -11.386,6.293 C 9.894,54.33 8.04,55.93 3.1,55.82 2.595,55.14 5.162,52.197 6.034,50.927 6.312,50.52 5.717,50.092 5.16,49.827 3.822,49.213 2.48,47.547 1.053,46.897 c 0.183,-0.337 0.83,-0.674 1.187,-0.88 3.24,-1.88 11.832,2.124 14.14,-0.143 1.425,-1.398 2.385,-2.626 3.353,-4.05 0.94,-1.38 2.368,-2.838 3.847,-4.047 a 31.3,31.3 0 0 1 1.94,-1.435 c 2.52,-1.724 3.907,-1.852 7.17,-3.064 4.152,-1.544 9.293,-2.898 13.747,-4.6 2.752,-1.053 5.744,-2.35 8.183,-4.17 0.58,-0.432 1.127,-0.893 1.634,-1.386 6.964,-6.8 8.345,-18.766 19.2,-19.882 1.314,-0.135 2.248,-0.192 3.228,-0.223 1.096,-0.03 2.18,-0.3 3.263,-0.818 0.334,-0.146 2.324,-1.35 2.996,-0.768 0.448,0.388 0.115,2.492 0.086,2.72"
       transform="matrix(0.402475,0,0,0.402475,24.790133,2.372202)"
       id="path7"
       inkscape:connector-curvature="0" />
  </g>
</svg>
